HIERARCHY
ROOT Hips
{
	OFFSET 0.000000 0.000000 0.000000
	CHANNELS 6 Xposition Yposition Zposition Zrotation Yrotation Xrotation 
	JOINT LHipJoint
	{
		OFFSET 0.000000 0.000000 0.000000
		CHANNELS 3 Zrotation Yrotation Xrotation
		JOINT LeftUpLeg
		{
			OFFSET 1.363060 -1.794630 0.839290
			CHANNELS 3 Zrotation Yrotation Xrotation
			JOINT LeftLeg
			{
				OFFSET 2.448110 -6.726130 0.000000
				CHANNELS 3 Zrotation Yrotation Xrotation
				JOINT LeftFoot
				{
					OFFSET 2.562200 -7.039590 0.000000
					CHANNELS 3 Zrotation Yrotation Xrotation
					JOINT LeftToeBase
					{
						OFFSET 0.157640 -0.433110 2.322550
						CHANNELS 3 Zrotation Yrotation Xrotation
						End Site
						{
							OFFSET 0.000000 0.000000 0.000000
						}
					}
				}
			}
		}
	}
	JOINT RHipJoint
	{
		OFFSET 0.000000 0.000000 0.000000
		CHANNELS 3 Zrotation Yrotation Xrotation
		JOINT RightUpLeg
		{
			OFFSET -1.305520 -1.794630 0.839290
			CHANNELS 3 Zrotation Yrotation Xrotation
			JOINT RightLeg
			{
				OFFSET -2.542530 -6.985550 0.000000
				CHANNELS 3 Zrotation Yrotation Xrotation
				JOINT RightFoot
				{
					OFFSET -2.568260 -7.056230 0.000000
					CHANNELS 3 Zrotation Yrotation Xrotation
					JOINT RightToeBase
					{
						OFFSET -0.164730 -0.452590 2.363150
						CHANNELS 3 Zrotation Yrotation Xrotation
						End Site
						{
							OFFSET 0.000000 0.000000 0.000000
						}
					}
				}
			}
		}
	}
}
MOTION
Frames: 22
Frame Time: 0.008333
-21.012936 16.186036 -0.033103 33.048476 89.740406 59.917416 -7.957323 -1.649027 3.674518 -4.793211 -10.947226 -63.138345 -0.686065 1.539869 38.530230 1.419053 6.551871 -1.440745 1.271699 -0.000000 -32.986101 11.092528 -3.673664 -1.438404 6.991011 -4.681161 0.119921 2.058767 -1.034355 15.670781 0.118553 2.326180 2.734263 0.188599 -0.000000 -87.802100
-20.798857 16.220690 -0.041858 30.841979 89.523588 57.510290 -8.055108 -1.620288 3.579428 -5.212285 -10.634639 -62.228857 -0.715125 1.552854 39.010457 1.462270 6.657208 -2.353457 1.151000 0.000000 -32.311100 11.187437 -3.808776 -1.565802 6.543573 -5.583145 -1.027268 1.827148 -1.397374 18.501572 0.090747 2.391309 5.689788 0.332100 -0.000000 -89.791000
-20.586900 16.259004 -0.052746 29.317616 89.331836 55.756353 -8.140148 -1.563885 3.483475 -5.668393 -10.283241 -61.200628 -0.770070 1.552124 39.305128 1.487343 6.659450 -3.320153 1.006001 -0.000000 -31.823300 11.306752 -3.901909 -1.713490 6.100927 -6.629660 -2.322420 1.561241 -1.731498 21.505430 -0.004668 2.211165 8.695479 0.448300 0.000000 -90.652000
-20.377029 16.300566 -0.065568 28.469431 89.180101 54.656945 -8.207601 -1.484756 3.388981 -6.140757 -9.919111 -60.066322 -0.842894 1.536190 39.429924 1.497046 6.579428 -4.289522 0.850300 -0.000000 -31.535400 11.447936 -3.943289 -1.875893 5.681000 -7.768337 -3.737244 1.275718 -2.025743 24.638281 -0.170477 1.693911 11.605258 0.464200 -0.000000 -90.222500
-20.170055 16.345143 -0.079893 28.401670 89.080688 54.321647 -8.248103 -1.385655 3.297701 -6.615143 -9.571961 -58.831847 -0.926236 1.502772 39.394236 1.495862 6.448734 -5.212623 0.697300 0.000000 -31.444101 11.613618 -3.926187 -2.049751 5.291344 -8.953696 -5.245321 0.989358 -2.276596 27.860974 -0.399927 0.775740 14.253682 0.301500 0.000000 -88.485900
-19.965616 16.392536 -0.095628 28.927063 89.032991 54.573069 -8.268669 -1.272757 3.214084 -7.064264 -9.258160 -57.516009 -1.012497 1.453169 39.211154 1.488320 6.296280 -6.052427 0.556300 -0.000000 -31.531200 11.785854 -3.852065 -2.230853 4.956903 -10.126493 -6.822458 0.720916 -2.487383 31.131412 -0.680042 -0.585115 16.478689 -0.106400 -0.000001 -85.598900
-19.764212 16.442667 -0.112428 29.964392 89.030280 55.337039 -8.271603 -1.148905 3.140837 -7.472085 -8.992687 -56.130565 -1.096215 1.388541 38.887325 1.479454 6.154546 -6.782529 0.433700 -0.000000 -31.759301 11.955323 -3.726273 -2.416776 4.687721 -11.244316 -8.452498 0.482614 -2.667907 34.412017 -0.994004 -2.370480 18.147448 -0.779400 -0.000000 -81.889000
-19.565735 16.495562 -0.129835 31.425547 89.058152 56.531822 -8.259427 -1.015949 3.078903 -7.831021 -8.783936 -54.684294 -1.174218 1.310509 38.424125 1.473943 6.053242 -7.389214 0.332299 0.000000 -32.077300 12.115151 -3.557063 -2.604416 4.485417 -12.270705 -10.124682 0.278678 -2.830331 37.663067 -1.325198 -4.503542 19.179518 -1.678300 0.000000 -77.762100
-19.370013 16.551121 -0.148082 32.876928 89.098468 57.736855 -8.253516 -0.883247 3.030628 -8.119522 -8.621883 -53.203943 -1.243426 1.223510 37.831729 1.473949 6.004967 -7.873648 0.251100 0.000000 -32.429300 12.238736 -3.360274 -2.786848 4.375415 -13.158326 -11.835773 0.107807 -2.985084 40.838992 -1.659540 -6.871344 19.555853 -2.717100 -0.000000 -73.585700
-19.177360 16.609287 -0.165578 34.594680 89.130235 59.219488 -8.233822 -0.744141 2.987350 -8.376630 -8.513847 -51.664213 -1.307009 1.125607 37.093999 1.483752 6.037866 -8.238231 0.189600 0.000000 -32.760500 12.351921 -3.137929 -2.962465 4.306388 -13.906177 -13.574422 -0.037070 -3.141493 43.908066 -1.983437 -9.294776 19.308758 -3.759900 0.000001 -69.651700
-18.987129 16.669816 -0.183458 35.740453 89.140441 60.160790 -8.241764 -0.618745 2.951261 -8.567951 -8.425119 -50.109868 -1.362328 1.022553 36.233177 1.500658 6.133180 -8.503439 0.143199 -0.000000 -33.026100 12.409417 -2.913775 -3.119518 4.328538 -14.464722 -15.346121 -0.160041 -3.302385 46.817792 -2.286555 -11.635079 18.524954 -4.695000 -0.000001 -66.092800
-18.799275 16.732313 -0.201219 36.164206 89.117542 60.407527 -8.278795 -0.510731 2.915368 -8.711823 -8.338184 -48.538917 -1.411604 0.914336 35.252119 1.523673 6.284848 -8.685959 0.108900 0.000000 -33.195400 12.414910 -2.696897 -3.252569 4.423288 -14.830254 -17.143734 -0.266430 -3.468683 49.531245 -2.557706 -13.737457 17.313484 -5.418500 -0.000000 -62.965800
-18.613320 16.796376 -0.218944 35.536120 89.052940 59.633201 -8.356051 -0.426156 2.875757 -8.811790 -8.227550 -46.962294 -1.456016 0.802193 34.161156 1.549767 6.473338 -8.804465 0.083500 -0.000000 -33.253100 12.360874 -2.497734 -3.354706 4.589326 -14.995311 -18.961641 -0.359498 -3.636859 52.008244 -2.786099 -15.481744 15.801155 -5.870400 -0.000000 -60.238500
-18.429830 16.861293 -0.235764 33.968874 88.931721 57.932813 -8.461693 -0.358340 2.821354 -8.902811 -8.072507 -45.356339 -1.500093 0.686382 32.961461 1.576549 6.684833 -8.872866 0.064701 0.000000 -33.204700 12.265356 -2.312597 -3.425664 4.781879 -14.976604 -20.771541 -0.442487 -3.801655 54.218337 -2.961601 -16.775776 14.124262 -6.033501 0.000000 -57.992000
-18.247500 16.926472 -0.252526 31.109267 88.748028 54.960527 -8.614031 -0.309312 2.755364 -8.965654 -7.842626 -43.753481 -1.543184 0.571576 31.679618 1.598890 6.885578 -8.906220 0.049900 -0.000000 -33.070700 12.111479 -2.147489 -3.459070 5.022072 -14.769135 -22.568647 -0.516248 -3.952353 56.130785 -3.075961 -17.577664 12.402309 -5.936800 -0.000000 -56.111099
-18.066636 16.991147 -0.268917 27.191657 88.488298 50.937837 -8.801173 -0.265680 2.673664 -9.015510 -7.520550 -42.146278 -1.588228 0.460936 30.327444 1.613846 7.056967 -8.910915 0.038000 -0.000000 -32.887700 11.915461 -1.991330 -3.456400 5.282528 -14.393126 -24.326454 -0.582195 -4.078643 57.727879 -3.123653 -17.871834 10.747941 -5.634199 0.000000 -54.629700
-17.886633 17.054559 -0.284905 22.514215 88.146416 46.154569 -9.009821 -0.214105 2.575711 -9.053713 -7.094787 -40.537895 -1.636565 0.358134 28.924257 1.618583 7.180681 -8.888207 0.029000 -0.000000 -32.704400 11.694127 -1.832878 -3.419371 5.551862 -13.869333 -26.024011 -0.640375 -4.171227 59.000047 -3.103557 -17.681386 9.248485 -5.194400 0.000000 -53.530900
-17.707233 17.116010 -0.300423 17.486776 87.729359 41.012743 -9.220786 -0.144194 2.461277 -9.078274 -6.565110 -38.931610 -1.688481 0.265307 27.492723 1.610921 7.242971 -8.834339 0.023500 0.000001 -32.574500 11.470103 -1.662911 -3.351203 5.822285 -13.225335 -27.644363 -0.688960 -4.226030 59.946329 -3.019893 -17.063161 7.963695 -4.684900 0.000000 -52.791200
-17.528210 17.174816 -0.315389 12.524301 87.259825 35.922782 -9.415431 -0.053099 2.330612 -9.086437 -5.944242 -37.330354 -1.742877 0.182377 26.058586 1.589388 7.235619 -8.741499 0.022800 0.000000 -32.549499 11.264709 -1.479152 -3.256023 6.089471 -12.495078 -29.178539 -0.724185 -4.246186 60.573651 -2.882517 -16.103056 6.920891 -4.160900 -0.000000 -52.369000
-17.349091 17.230404 -0.329747 7.928855 86.771119 31.192955 -9.582755 0.054360 2.189377 -9.073219 -5.263067 -35.750822 -1.796838 0.107679 24.650406 1.554317 7.160466 -8.600308 0.028500 0.000000 -32.665499 11.089296 -1.286525 -3.135932 6.354618 -11.711742 -30.636780 -0.742029 -4.239527 60.897433 -2.706792 -14.911619 6.120267 -3.662900 0.000000 -52.227199
-17.170027 17.282298 -0.343147 3.957598 86.297273 27.064623 -9.719665 0.168139 2.031632 -9.049761 -4.539028 -34.173107 -1.849138 0.039696 23.289546 1.505110 7.017163 -8.404353 0.040600 -0.000000 -32.952900 10.947653 -1.093515 -3.002594 6.599132 -10.919438 -32.001176 -0.738223 -4.218510 60.938537 -2.507717 -13.588703 5.510104 -3.204000 -0.000000 -52.251700
-16.991247 17.330169 -0.355387 0.681134 85.863705 23.606682 -9.831632 0.279956 1.859800 -9.020517 -3.799471 -32.597975 -1.897524 -0.022007 21.995050 1.443920 6.817224 -8.151009 0.059101 -0.000000 -33.412901 10.832347 -0.906984 -2.863170 6.814516 -10.147016 -33.272496 -0.711076 -4.190980 60.720588 -2.301903 -12.239052 5.030234 -2.792600 -0.000000 -52.390999
